<?xml version="1.0" encoding="UTF-8" standalone="no"?>
<svg xmlns="http://www.w3.org/2000/svg" version="1.1" width="180" height="53.333332" viewBox="0 0 179.99999 53.333332">
	<defs>
		<clipPath id="clipPath28">
			<path d="m 205.098,176.105 -0.743,0.711 c -2.91,3.079 -4.628,7.86 -4.628,14.051 v -1.457 0 221.16 c 0,0.02 0,0.035 0,0.051 0,-0.019 0,-0.035 0,-0.055 v -1.461 c 0,6.704 2.003,11.754 5.359,14.782 L 328.984,299.992 205.098,176.105 m -5.371,234.528 c 0,0.551 0.015,1.086 0.043,1.613 -0.028,-0.523 -0.043,-1.062 -0.043,-1.613 m 0.043,1.637 c 0,0.007 0,0.015 0.003,0.023 -0.003,-0.008 -0.003,-0.016 -0.003,-0.023 m 0.003,0.07 c 0,0.004 0,0.008 0,0.012 0,-0.004 0,-0.008 0,-0.012"/>
		</clipPath>
		<linearGradient x1="0" y1="0" x2="1" y2="0" gradientUnits="userSpaceOnUse" gradientTransform="matrix(-167.825,-167.825,167.825,-167.825,317.998,412.903)" id="linearGradient42">
			<stop style="stop-opacity:1;stop-color:#00a0ff" offset="0"/>
			<stop style="stop-opacity:1;stop-color:#00a1ff" offset="0.00657445"/>
			<stop style="stop-opacity:1;stop-color:#00beff" offset="0.2601"/>
			<stop style="stop-opacity:1;stop-color:#00d2ff" offset="0.5122"/>
			<stop style="stop-opacity:1;stop-color:#00dfff" offset="0.7604"/>
			<stop style="stop-opacity:1;stop-color:#00e3ff" offset="1"/>
		</linearGradient>
		<clipPath id="clipPath52">
			<path d="m 370.277,257.215 v 0 l 0.942,0.535 48.929,27.801 c 4.665,2.652 7.774,5.867 9.325,9.269 -1.547,-3.402 -4.657,-6.621 -9.325,-9.273 l -48.929,-27.801 -0.942,-0.531 m 0.012,1.465 -41.305,41.312 41.301,41.305 49.863,-28.328 c 6.332,-3.598 9.887,-8.235 10.481,-12.973 0,-0.004 0,-0.012 0,-0.019 -0.594,-4.727 -4.149,-9.368 -10.481,-12.965 L 370.289,258.68"/>
		</clipPath>
		<linearGradient x1="0" y1="0" x2="1" y2="0" gradientUnits="userSpaceOnUse" gradientTransform="matrix(-241.97,0,0,-241.97,438.344,299.986)" id="linearGradient62">
			<stop style="stop-opacity:1;stop-color:#ffe000" offset="0"/>
			<stop style="stop-opacity:1;stop-color:#ffbd00" offset="0.4087"/>
			<stop style="stop-opacity:1;stop-color:#ffa500" offset="0.7754"/>
			<stop style="stop-opacity:1;stop-color:#ff9c00" offset="1"/>
		</linearGradient>
		<clipPath id="clipPath72">
			<path d="m 213.93,171.387 c -3.461,0 -6.481,1.125 -8.836,3.25 l 0.004,0.004 c 2.355,-2.125 5.379,-3.254 8.84,-3.254 0.3,0 0.605,0.008 0.914,0.023 -0.313,-0.015 -0.622,-0.023 -0.922,-0.023 m 0.004,1.465 c -3.461,-0.004 -6.481,1.125 -8.836,3.25 v 0 0.003 l 123.886,123.887 41.305,-41.312 v 0 L 225.137,176.207 c -4.016,-2.277 -7.821,-3.355 -11.203,-3.355 m -8.871,1.812 c -0.219,0.199 -0.434,0.41 -0.645,0.629 l 0.645,-0.629"/>
		</clipPath>
		<linearGradient x1="0" y1="0" x2="1" y2="0" gradientUnits="userSpaceOnUse" gradientTransform="matrix(-227.583,-227.583,227.583,-227.583,348.27,277.039)" id="linearGradient78">
			<stop style="stop-opacity:1;stop-color:#ff3a44" offset="0"/>
			<stop style="stop-opacity:1;stop-color:#c31162" offset="1"/>
		</linearGradient>
		<clipPath id="clipPath88">
			<path d="m 328.984,299.992 v 0 L 205.086,423.887 c 2.355,2.121 5.371,3.246 8.828,3.246 3.391,0 7.199,-1.082 11.223,-3.363 l 145.148,-82.473 -41.301,-41.305 m 42.235,42.238 -146.082,83 c -4.024,2.282 -7.832,3.364 -11.223,3.364 -0.016,0 -0.027,0 -0.043,0 0.02,0 0.035,0 0.059,0 3.383,0 7.187,-1.078 11.207,-3.36 L 371.219,342.23 M 213.84,428.594 v 0 0"/>
		</clipPath>
		<linearGradient x1="0" y1="0" x2="1" y2="0" gradientUnits="userSpaceOnUse" gradientTransform="matrix(101.625,-101.625,101.625,101.625,172.973,498.238)" id="linearGradient100">
			<stop style="stop-opacity:1;stop-color:#32a071" offset="0"/>
			<stop style="stop-opacity:1;stop-color:#2da771" offset="0.0685"/>
			<stop style="stop-opacity:1;stop-color:#15cf74" offset="0.4762"/>
			<stop style="stop-opacity:1;stop-color:#06e775" offset="0.8009"/>
			<stop style="stop-opacity:1;stop-color:#00f076" offset="1"/>
		</linearGradient>
		<clipPath id="clipPath112">
			<path d="m 370.277,257.215 v 0 l 0.942,0.535 -0.942,-0.535"/>
		</clipPath>
		<linearGradient x1="0" y1="0" x2="1" y2="0" gradientUnits="userSpaceOnUse" gradientTransform="matrix(-241.97,0,0,-241.97,438.344,299.986)" id="linearGradient122">
			<stop style="stop-opacity:1;stop-color:#ccb300" offset="0"/>
			<stop style="stop-opacity:1;stop-color:#cc9700" offset="0.4087"/>
			<stop style="stop-opacity:1;stop-color:#cc8400" offset="0.7754"/>
			<stop style="stop-opacity:1;stop-color:#cc7d00" offset="1"/>
		</linearGradient>
		<clipPath id="clipPath132">
			<path d="m 213.938,171.387 c -3.461,0 -6.485,1.129 -8.84,3.254 l -0.004,-0.004 c -0.008,0.008 -0.02,0.019 -0.031,0.027 l -0.645,0.629 c -0.02,0.02 -0.039,0.043 -0.063,0.066 l 0.743,0.743 c 2.355,-2.125 5.375,-3.254 8.836,-3.25 3.382,0 7.187,1.078 11.203,3.355 l 145.152,82.473 0.93,-0.93 -0.942,-0.535 -145.14,-82.469 c -3.66,-2.074 -7.141,-3.156 -10.285,-3.336 -0.309,-0.015 -0.614,-0.023 -0.914,-0.023"/>
		</clipPath>
		<linearGradient x1="0" y1="0" x2="1" y2="0" gradientUnits="userSpaceOnUse" gradientTransform="matrix(-227.583,-227.583,227.583,-227.583,348.27,277.039)" id="linearGradient138">
			<stop style="stop-opacity:1;stop-color:#cc2e36" offset="0"/>
			<stop style="stop-opacity:1;stop-color:#9c0e4e" offset="1"/>
		</linearGradient>
		<clipPath id="clipPath150">
			<path d="m 204.355,175.359 v 0 c -2.91,3.079 -4.628,7.856 -4.628,14.051 v 1.457 c 0,-6.191 1.718,-10.972 4.628,-14.051 l 0.743,-0.711 -0.743,-0.746"/>
		</clipPath>
		<linearGradient x1="0" y1="0" x2="1" y2="0" gradientUnits="userSpaceOnUse" gradientTransform="matrix(-167.825,-167.825,167.825,-167.825,317.998,412.903)" id="linearGradient164">
			<stop style="stop-opacity:1;stop-color:#008de0" offset="0"/>
			<stop style="stop-opacity:1;stop-color:#008de0" offset="0.00657445"/>
			<stop style="stop-opacity:1;stop-color:#00a7e0" offset="0.2601"/>
			<stop style="stop-opacity:1;stop-color:#00b8e0" offset="0.5122"/>
			<stop style="stop-opacity:1;stop-color:#00c4e0" offset="0.7604"/>
			<stop style="stop-opacity:1;stop-color:#00c7e0" offset="1"/>
		</linearGradient>
		<clipPath id="clipPath174">
			<path d="m 204.355,175.359 v 0 0 l 0.743,0.746 v -0.003 l -0.743,-0.743"/>
		</clipPath>
		<linearGradient x1="0" y1="0" x2="1" y2="0" gradientUnits="userSpaceOnUse" gradientTransform="matrix(-227.583,-227.583,227.583,-227.583,348.27,277.039)" id="linearGradient180">
			<stop style="stop-opacity:1;stop-color:#e0333c" offset="0"/>
			<stop style="stop-opacity:1;stop-color:#ab0f56" offset="1"/>
		</linearGradient>
		<clipPath id="clipPath192">
			<path d="m 371.219,257.75 v 0 l -0.93,0.93 49.859,28.332 c 6.332,3.597 9.887,8.238 10.481,12.965 0,-1.735 -0.387,-3.469 -1.156,-5.157 -1.551,-3.402 -4.66,-6.617 -9.325,-9.269 L 371.219,257.75"/>
		</clipPath>
		<linearGradient x1="0" y1="0" x2="1" y2="0" gradientUnits="userSpaceOnUse" gradientTransform="matrix(-241.97,0,0,-241.97,438.344,299.986)" id="linearGradient202">
			<stop style="stop-opacity:1;stop-color:#e0c500" offset="0"/>
			<stop style="stop-opacity:1;stop-color:#e0a600" offset="0.4087"/>
			<stop style="stop-opacity:1;stop-color:#e09100" offset="0.7754"/>
			<stop style="stop-opacity:1;stop-color:#e08900" offset="1"/>
		</linearGradient>
		<clipPath id="clipPath214">
			<path d="m 430.629,299.996 c -0.594,4.738 -4.149,9.375 -10.481,12.973 l -49.863,28.328 0.93,0.93 h 0.004 l 48.929,-27.801 c 6.981,-3.969 10.477,-9.199 10.481,-14.43"/>
		</clipPath>
		<linearGradient x1="0" y1="0" x2="1" y2="0" gradientUnits="userSpaceOnUse" gradientTransform="matrix(-241.97,0,0,-241.97,438.344,299.986)" id="linearGradient224">
			<stop style="stop-opacity:1;stop-color:#ffe840" offset="0"/>
			<stop style="stop-opacity:1;stop-color:#ffce40" offset="0.4087"/>
			<stop style="stop-opacity:1;stop-color:#ffbc40" offset="0.7754"/>
			<stop style="stop-opacity:1;stop-color:#ffb540" offset="1"/>
		</linearGradient>
		<clipPath id="clipPath236">
			<path d="m 199.727,409.105 v 1.461 c 0,0.02 0,0.036 0,0.055 0,0.004 0,0.008 0,0.012 0,0.551 0.015,1.09 0.043,1.613 0,0.008 0,0.016 0,0.024 0,0.007 0,0.015 0.003,0.023 0,0.016 0,0.031 0,0.047 0,0.004 0,0.008 0,0.012 0.301,5.332 1.957,9.492 4.582,12.269 v 0 0 l 0.731,-0.734 c -3.356,-3.028 -5.359,-8.078 -5.359,-14.782 m 5.339,16.215 0.028,0.028 c -0.008,-0.012 -0.02,-0.02 -0.028,-0.028"/>
		</clipPath>
		<linearGradient x1="0" y1="0" x2="1" y2="0" gradientUnits="userSpaceOnUse" gradientTransform="matrix(-167.825,-167.825,167.825,-167.825,317.998,412.903)" id="linearGradient250">
			<stop style="stop-opacity:1;stop-color:#40b8ff" offset="0"/>
			<stop style="stop-opacity:1;stop-color:#40b9ff" offset="0.00657445"/>
			<stop style="stop-opacity:1;stop-color:#40ceff" offset="0.2601"/>
			<stop style="stop-opacity:1;stop-color:#40ddff" offset="0.5122"/>
			<stop style="stop-opacity:1;stop-color:#40e7ff" offset="0.7604"/>
			<stop style="stop-opacity:1;stop-color:#40eaff" offset="1"/>
		</linearGradient>
		<clipPath id="clipPath262">
			<path d="M 370.285,341.297 225.137,423.77 c -4.024,2.281 -7.832,3.363 -11.223,3.363 -3.457,0 -6.473,-1.125 -8.828,-3.246 l -0.731,0.734 v 0 c 0.231,0.242 0.465,0.477 0.711,0.699 0.008,0.008 0.02,0.016 0.028,0.024 2.336,2.105 5.32,3.23 8.746,3.25 v 0 c 0.008,0 0.019,0 0.031,0 0.016,0 0.027,0 0.043,0 3.391,0 7.199,-1.082 11.223,-3.364 l 146.082,-83 -0.004,-0.003 -0.93,-0.93"/>
		</clipPath>
		<linearGradient x1="0" y1="0" x2="1" y2="0" gradientUnits="userSpaceOnUse" gradientTransform="matrix(101.625,-101.625,101.625,101.625,172.973,498.238)" id="linearGradient274">
			<stop style="stop-opacity:1;stop-color:#65b895" offset="0"/>
			<stop style="stop-opacity:1;stop-color:#62bd95" offset="0.0685"/>
			<stop style="stop-opacity:1;stop-color:#50db97" offset="0.4762"/>
			<stop style="stop-opacity:1;stop-color:#44ed98" offset="0.8009"/>
			<stop style="stop-opacity:1;stop-color:#40f498" offset="1"/>
		</linearGradient>
	</defs>
	<g transform="matrix(1.3333333,0,0,-1.3333333,-13.333333,66.666665)">
		<g transform="scale(0.1)">
			<path d="M 1550,0 H 0 V 600 H 1550 V 0 M 100,150 v 0 c 0,-27.5 22.5,-50 50,-50 h 1250 c 27.5,0 50,22.5 50,50 v 300 0 0 c 0,27.5 -22.5,50 -50,50 H 150 c -27.5,0 -50,-22.5 -50,-50 v -300 0" style="fill:#ffffff;fill-opacity:1;fill-rule:nonzero;stroke:none"/>
			<path d="M 1400,100 H 150 c -27.5,0 -50,22.5 -50,50 v 300 c 0,27.5 22.5,50 50,50 h 1250 c 27.5,0 50,-22.5 50,-50 V 150 c 0,-27.5 -22.5,-50 -50,-50" style="fill:#000000;fill-opacity:1;fill-rule:nonzero;stroke:none"/>
			<path d="M 1400,500 H 150 c -27.5,0 -50,-22.5 -50,-50 V 150 c 0,-27.5 22.5,-50 50,-50 h 1250 c 27.5,0 50,22.5 50,50 v 300 c 0,27.5 -22.5,50 -50,50 m 0,-8 c 23.16,0 42,-18.844 42,-42 V 150 c 0,-23.16 -18.84,-42.004 -42,-42.004 H 150 c -23.156,0 -42,18.844 -42,42.004 v 300 c 0,23.156 18.844,42 42,42 h 1250" style="fill:#a6a6a6;fill-opacity:1;fill-rule:nonzero;stroke:none"/>
			<path d="m 1169.36,200 h 18.66 v 125.012 h -18.66 z m 168.07,79.98 -21.39,-54.199 h -0.64 l -22.2,54.199 h -20.1 l 33.29,-75.753 -18.98,-42.137 h 19.47 l 51.3,117.89 z m -105.82,-65.781 c -6.12,0 -14.64,3.055 -14.64,10.617 0,9.649 10.62,13.348 19.78,13.348 8.21,0 12.06,-1.769 17.05,-4.184 -1.45,-11.578 -11.42,-19.781 -22.19,-19.781 z m 2.25,68.516 c -13.51,0 -27.5,-5.953 -33.29,-19.141 l 16.56,-6.914 c 3.54,6.914 10.13,9.168 17.05,9.168 9.65,0 19.46,-5.793 19.62,-16.086 v -1.285 c -3.38,1.93 -10.61,4.824 -19.46,4.824 -17.85,0 -36.03,-9.808 -36.03,-28.144 0,-16.727 14.64,-27.504 31.04,-27.504 12.55,0 19.46,5.629 23.81,12.222 h 0.64 v -9.648 h 18.01 v 47.93 c 0,22.191 -16.56,34.578 -37.95,34.578 z M 1118.54,264.762 H 1092 v 42.851 h 26.54 c 13.95,0 21.87,-11.55 21.87,-21.425 0,-9.688 -7.92,-21.426 -21.87,-21.426 z m -0.48,60.25 h -44.71 V 200 H 1092 v 47.363 h 26.06 c 20.68,0 41.01,14.973 41.01,38.825 0,23.851 -20.33,38.824 -41.01,38.824 z M 874.25,214.176 c -12.891,0 -23.684,10.793 -23.684,25.617 0,14.98 10.793,25.937 23.684,25.937 12.727,0 22.715,-10.957 22.715,-25.937 0,-14.824 -9.988,-25.617 -22.715,-25.617 z m 21.426,58.804 h -0.645 c -4.187,4.993 -12.246,9.504 -22.394,9.504 -21.266,0 -40.758,-18.687 -40.758,-42.691 0,-23.844 19.492,-42.371 40.758,-42.371 10.148,0 18.207,4.512 22.394,9.664 h 0.645 v -6.121 c 0,-16.274 -8.699,-24.973 -22.715,-24.973 -11.438,0 -18.527,8.219 -21.43,15.145 l -16.269,-6.766 c 4.672,-11.277 17.078,-25.133 37.699,-25.133 21.91,0 40.437,12.891 40.437,44.305 v 76.363 H 895.676 Z M 926.285,200 h 18.688 v 125.016 h -18.688 z m 46.238,41.242 c -0.484,16.434 12.727,24.809 22.231,24.809 7.416,0 13.696,-3.703 15.786,-9.024 z m 57.997,14.176 c -3.54,9.508 -14.34,27.066 -36.411,27.066 -21.91,0 -40.113,-17.238 -40.113,-42.531 0,-23.844 18.043,-42.531 42.207,-42.531 19.497,0 30.777,11.922 35.447,18.848 l -14.5,9.668 c -4.83,-7.09 -11.44,-11.762 -20.947,-11.762 -9.504,0 -16.269,4.351 -20.621,12.887 l 56.868,23.523 z m -453.082,14.016 v -18.043 h 43.175 c -1.289,-10.149 -4.672,-17.559 -9.828,-22.715 -6.281,-6.285 -16.109,-13.211 -33.347,-13.211 -26.583,0 -47.364,21.426 -47.364,48.008 0,26.582 20.781,48.011 47.364,48.011 14.339,0 24.808,-5.64 32.542,-12.89 l 12.727,12.726 c -10.793,10.313 -25.133,18.207 -45.269,18.207 -36.411,0 -67.02,-29.644 -67.02,-66.054 0,-36.41 30.609,-66.051 67.02,-66.051 19.656,0 34.476,6.441 46.074,18.527 11.922,11.922 15.629,28.676 15.629,42.207 0,4.192 -0.321,8.055 -0.969,11.278 z m 110.789,-55.258 c -12.891,0 -24.008,10.633 -24.008,25.777 0,15.305 11.117,25.777 24.008,25.777 12.886,0 24.003,-10.472 24.003,-25.777 0,-15.144 -11.117,-25.777 -24.003,-25.777 z m 0,68.308 c -23.524,0 -42.696,-17.882 -42.696,-42.531 0,-24.488 19.172,-42.531 42.696,-42.531 23.519,0 42.691,18.043 42.691,42.531 0,24.649 -19.172,42.531 -42.691,42.531 z m 93.132,-68.308 c -12.886,0 -24.004,10.633 -24.004,25.777 0,15.305 11.118,25.777 24.004,25.777 12.887,0 24.004,-10.472 24.004,-25.777 0,-15.144 -11.117,-25.777 -24.004,-25.777 z m 0,68.308 c -23.523,0 -42.691,-17.882 -42.691,-42.531 0,-24.488 19.168,-42.531 42.691,-42.531 23.52,0 42.692,18.043 42.692,42.531 0,24.649 -19.172,42.531 -42.692,42.531" style="fill:#ffffff;fill-opacity:1;fill-rule:nonzero;stroke:none"/>
			<g clip-path="url(#clipPath28)">
				<path d="m 205.098,176.105 -0.743,0.711 c -2.91,3.079 -4.628,7.86 -4.628,14.051 v -1.457 0 221.16 c 0,0.02 0,0.035 0,0.051 0,-0.019 0,-0.035 0,-0.055 v -1.461 c 0,6.704 2.003,11.754 5.359,14.782 L 328.984,299.992 205.098,176.105 m -5.371,234.528 c 0,0.551 0.015,1.086 0.043,1.613 -0.028,-0.523 -0.043,-1.062 -0.043,-1.613 m 0.043,1.637 c 0,0.007 0,0.015 0.003,0.023 -0.003,-0.008 -0.003,-0.016 -0.003,-0.023 m 0.003,0.07 c 0,0.004 0,0.008 0,0.012 0,-0.004 0,-0.008 0,-0.012" style="fill:url(#linearGradient42);fill-opacity:1;fill-rule:nonzero;stroke:none"/>
			</g>
			<g clip-path="url(#clipPath52)">
				<path d="m 370.277,257.215 v 0 l 0.942,0.535 48.929,27.801 c 4.665,2.652 7.774,5.867 9.325,9.269 -1.547,-3.402 -4.657,-6.621 -9.325,-9.273 l -48.929,-27.801 -0.942,-0.531 m 0.012,1.465 -41.305,41.312 41.301,41.305 49.863,-28.328 c 6.332,-3.598 9.887,-8.235 10.481,-12.973 0,-0.004 0,-0.012 0,-0.019 -0.594,-4.727 -4.149,-9.368 -10.481,-12.965 L 370.289,258.68" style="fill:url(#linearGradient62);fill-opacity:1;fill-rule:nonzero;stroke:none"/>
			</g>
			<g clip-path="url(#clipPath72)">
				<path d="m 213.93,171.387 c -3.461,0 -6.481,1.125 -8.836,3.25 l 0.004,0.004 c 2.355,-2.125 5.379,-3.254 8.84,-3.254 0.3,0 0.605,0.008 0.914,0.023 -0.313,-0.015 -0.622,-0.023 -0.922,-0.023 m 0.004,1.465 c -3.461,-0.004 -6.481,1.125 -8.836,3.25 v 0 0.003 l 123.886,123.887 41.305,-41.312 v 0 L 225.137,176.207 c -4.016,-2.277 -7.821,-3.355 -11.203,-3.355 m -8.871,1.812 c -0.219,0.199 -0.434,0.41 -0.645,0.629 l 0.645,-0.629" style="fill:url(#linearGradient78);fill-opacity:1;fill-rule:nonzero;stroke:none"/>
			</g>
			<g clip-path="url(#clipPath88)">
				<path d="m 328.984,299.992 v 0 L 205.086,423.887 c 2.355,2.121 5.371,3.246 8.828,3.246 3.391,0 7.199,-1.082 11.223,-3.363 l 145.148,-82.473 -41.301,-41.305 m 42.235,42.238 -146.082,83 c -4.024,2.282 -7.832,3.364 -11.223,3.364 -0.016,0 -0.027,0 -0.043,0 0.02,0 0.035,0 0.059,0 3.383,0 7.187,-1.078 11.207,-3.36 L 371.219,342.23 M 213.84,428.594 v 0 0" style="fill:url(#linearGradient100);fill-opacity:1;fill-rule:nonzero;stroke:none"/>
			</g>
			<path d="m 214.852,171.41 c 3.144,0.18 6.625,1.262 10.285,3.336 l 145.14,82.469 v 0 l -145.14,-82.469 c -3.657,-2.078 -7.141,-3.156 -10.285,-3.336 m -9.758,3.227 -0.031,0.027 c 0.011,-0.008 0.023,-0.019 0.031,-0.027 v 0 m -0.676,0.656 -0.063,0.062 v 0.004 c 0.024,-0.023 0.043,-0.046 0.063,-0.066" style="fill:#000000;fill-opacity:1;fill-rule:nonzero;stroke:none"/>
			<g clip-path="url(#clipPath112)">
				<path d="m 370.277,257.215 v 0 l 0.942,0.535 -0.942,-0.535" style="fill:url(#linearGradient122);fill-opacity:1;fill-rule:nonzero;stroke:none"/>
			</g>
			<g clip-path="url(#clipPath132)">
				<path d="m 213.938,171.387 c -3.461,0 -6.485,1.129 -8.84,3.254 l -0.004,-0.004 c -0.008,0.008 -0.02,0.019 -0.031,0.027 l -0.645,0.629 c -0.02,0.02 -0.039,0.043 -0.063,0.066 l 0.743,0.743 c 2.355,-2.125 5.375,-3.254 8.836,-3.25 3.382,0 7.187,1.078 11.203,3.355 l 145.152,82.473 0.93,-0.93 -0.942,-0.535 -145.14,-82.469 c -3.66,-2.074 -7.141,-3.156 -10.285,-3.336 -0.309,-0.015 -0.614,-0.023 -0.914,-0.023" style="fill:url(#linearGradient138);fill-opacity:1;fill-rule:nonzero;stroke:none"/>
			</g>
			<path d="m 204.355,175.355 c -2.91,3.079 -4.628,7.86 -4.628,14.051 v 0.004 c 0,-6.195 1.718,-10.972 4.628,-14.051 v 0 0 -0.004" style="fill:#000000;fill-opacity:1;fill-rule:nonzero;stroke:none"/>
			<g clip-path="url(#clipPath150)">
				<path d="m 204.355,175.359 v 0 c -2.91,3.079 -4.628,7.856 -4.628,14.051 v 1.457 c 0,-6.191 1.718,-10.972 4.628,-14.051 l 0.743,-0.711 -0.743,-0.746" style="fill:url(#linearGradient164);fill-opacity:1;fill-rule:nonzero;stroke:none"/>
			</g>
			<g clip-path="url(#clipPath174)">
				<path d="m 204.355,175.359 v 0 0 l 0.743,0.746 v -0.003 l -0.743,-0.743" style="fill:url(#linearGradient180);fill-opacity:1;fill-rule:nonzero;stroke:none"/>
			</g>
			<path d="m 429.473,294.82 c 0.769,1.688 1.156,3.422 1.156,5.157 0,0.003 0,0.007 0,0.007 0,-1.738 -0.387,-3.472 -1.156,-5.164" style="fill:#000000;fill-opacity:1;fill-rule:nonzero;stroke:none"/>
			<g clip-path="url(#clipPath192)">
				<path d="m 371.219,257.75 v 0 l -0.93,0.93 49.859,28.332 c 6.332,3.597 9.887,8.238 10.481,12.965 0,-1.735 -0.387,-3.469 -1.156,-5.157 -1.551,-3.402 -4.66,-6.617 -9.325,-9.269 L 371.219,257.75" style="fill:url(#linearGradient202);fill-opacity:1;fill-rule:nonzero;stroke:none"/>
			</g>
			<path d="m 430.629,299.992 v 0.004 c -0.004,5.231 -3.5,10.461 -10.481,14.43 l -48.929,27.801 h -0.004 l 0.004,0.003 48.929,-27.8 c 6.989,-3.969 10.489,-9.207 10.481,-14.438" style="fill:#404040;fill-opacity:1;fill-rule:nonzero;stroke:none"/>
			<g clip-path="url(#clipPath214)">
				<path d="m 430.629,299.996 c -0.594,4.738 -4.149,9.375 -10.481,12.973 l -49.863,28.328 0.93,0.93 h 0.004 l 48.929,-27.801 c 6.981,-3.969 10.477,-9.199 10.481,-14.43" style="fill:url(#linearGradient224);fill-opacity:1;fill-rule:nonzero;stroke:none"/>
			</g>
			<path d="m 199.727,410.621 c 0,0.004 0,0.008 0,0.012 0,-0.004 0,-0.008 0,-0.012 m 0.043,1.625 c 0,0.008 0,0.016 0,0.024 0,-0.008 0,-0.016 0,-0.024 m 0.003,0.047 c 0,0.016 0,0.031 0,0.047 0,-0.016 0,-0.031 0,-0.047 m 0,0.059 c 0.579,10.273 6.165,16.207 14.067,16.242 -3.426,-0.02 -6.41,-1.145 -8.746,-3.25 v 0.004 l -0.028,-0.028 c -0.246,-0.222 -0.48,-0.457 -0.711,-0.699 v 0 c -2.625,-2.777 -4.281,-6.937 -4.582,-12.269" style="fill:#404040;fill-opacity:1;fill-rule:nonzero;stroke:none"/>
			<g clip-path="url(#clipPath236)">
				<path d="m 199.727,409.105 v 1.461 c 0,0.02 0,0.036 0,0.055 0,0.004 0,0.008 0,0.012 0,0.551 0.015,1.09 0.043,1.613 0,0.008 0,0.016 0,0.024 0,0.007 0,0.015 0.003,0.023 0,0.016 0,0.031 0,0.047 0,0.004 0,0.008 0,0.012 0.301,5.332 1.957,9.492 4.582,12.269 v 0 0 l 0.731,-0.734 c -3.356,-3.028 -5.359,-8.078 -5.359,-14.782 m 5.339,16.215 0.028,0.028 c -0.008,-0.012 -0.02,-0.02 -0.028,-0.028" style="fill:url(#linearGradient250);fill-opacity:1;fill-rule:nonzero;stroke:none"/>
			</g>
			<path d="m 213.84,428.594 c 0.008,0 0.019,0 0.031,0 -0.012,0 -0.023,0 -0.031,0" style="fill:#404040;fill-opacity:1;fill-rule:nonzero;stroke:none"/>
			<g clip-path="url(#clipPath262)">
				<path d="M 370.285,341.297 225.137,423.77 c -4.024,2.281 -7.832,3.363 -11.223,3.363 -3.457,0 -6.473,-1.125 -8.828,-3.246 l -0.731,0.734 v 0 c 0.231,0.242 0.465,0.477 0.711,0.699 0.008,0.008 0.02,0.016 0.028,0.024 2.336,2.105 5.32,3.23 8.746,3.25 v 0 c 0.008,0 0.019,0 0.031,0 0.016,0 0.027,0 0.043,0 3.391,0 7.199,-1.082 11.223,-3.364 l 146.082,-83 -0.004,-0.003 -0.93,-0.93" style="fill:url(#linearGradient274);fill-opacity:1;fill-rule:nonzero;stroke:none"/>
			</g>
			<path d="m 536.898,370 h -7.714 v 52.629 H 512.426 V 430 h 41.23 v -7.371 H 536.898 V 370" style="fill:#ffffff;fill-opacity:1;fill-rule:nonzero;stroke:none"/>
			<path d="m 536.898,370 v 1 h -6.714 v 52.629 H 513.426 V 429 h 39.23 v -5.371 H 535.898 V 370 h 1 v 1 -1 h 1 v 51.629 h 16.758 v 8.371 1 h -43.23 v -8.371 -1 h 16.758 V 369 h 8.714 1 v 1 h -1" style="fill:#ffffff;fill-opacity:1;fill-rule:nonzero;stroke:none"/>
			<path d="m 563.383,370 v 60 h 7.707 v -60 h -7.707" style="fill:#ffffff;fill-opacity:1;fill-rule:nonzero;stroke:none"/>
			<path d="m 563.383,370 h 1 v 59 h 5.707 v -58 h -6.707 v -1 h 1 -1 v -1 h 7.707 1 v 62 h -8.707 -1 v -62 h 1 v 1" style="fill:#ffffff;fill-opacity:1;fill-rule:nonzero;stroke:none"/>
			<path d="m 584.828,370 v 60 h 7.707 v -52.629 h 25.977 V 370 h -33.684" style="fill:#ffffff;fill-opacity:1;fill-rule:nonzero;stroke:none"/>
			<path d="m 584.828,370 h 1 v 59 h 5.707 v -52.629 h 25.977 V 371 h -32.684 v -1 h 1 -1 v -1 h 34.684 v 8.371 1 H 593.535 V 431 h -8.707 -1 v -62 h 1 v 1" style="fill:#ffffff;fill-opacity:1;fill-rule:nonzero;stroke:none"/>
			<path d="m 684.711,397.566 c 0,-8.378 -2.481,-15.05 -7.449,-20.027 -5.645,-5.918 -13,-8.879 -22.043,-8.879 -8.66,0 -16.024,3 -22.078,9.008 -6.067,6.004 -9.094,13.449 -9.094,22.332 0,8.887 3.027,16.328 9.094,22.336 6.054,6.004 13.418,9.008 22.078,9.008 4.297,0 8.41,-0.84 12.316,-2.516 3.906,-1.68 7.039,-3.91 9.383,-6.703 l -5.273,-5.277 c -3.973,4.746 -9.442,7.117 -16.426,7.117 -6.317,0 -11.778,-2.219 -16.387,-6.66 -4.609,-4.446 -6.914,-10.211 -6.914,-17.305 0,-7.094 2.305,-12.859 6.914,-17.305 4.609,-4.441 10.07,-6.66 16.387,-6.66 6.699,0 12.285,2.231 16.758,6.699 2.902,2.911 4.582,6.957 5.031,12.153 h -21.789 v 7.207 h 29.074 c 0.281,-1.567 0.418,-3.071 0.418,-4.528" style="fill:#ffffff;fill-opacity:1;fill-rule:nonzero;stroke:none"/>
			<path d="m 684.711,397.566 h -1 c -0.008,-8.187 -2.398,-14.546 -7.156,-19.32 l -0.012,-0.008 -0.008,-0.008 c -5.461,-5.714 -12.484,-8.558 -21.316,-8.57 -8.43,0.012 -15.485,2.887 -21.375,8.715 -5.879,5.84 -8.785,12.969 -8.797,21.625 0.012,8.66 2.918,15.785 8.797,21.621 5.89,5.832 12.945,8.711 21.375,8.723 4.168,0 8.136,-0.813 11.922,-2.434 3.789,-1.633 6.781,-3.773 9.011,-6.43 l 0.766,0.645 -0.707,0.707 -5.273,-5.281 0.707,-0.703 0.765,0.64 c -4.152,4.981 -9.988,7.492 -17.191,7.477 -6.551,0.008 -12.313,-2.332 -17.078,-6.942 -4.813,-4.625 -7.235,-10.714 -7.223,-18.023 -0.012,-7.309 2.41,-13.398 7.223,-18.023 4.765,-4.61 10.527,-6.95 17.078,-6.942 6.922,-0.012 12.82,2.336 17.465,6.992 h 0.004 c 3.097,3.11 4.855,7.418 5.316,12.774 l 0.094,1.086 h -21.879 v 5.207 h 28.074 v 1 l -0.984,-0.176 c 0.273,-1.516 0.402,-2.957 0.402,-4.352 h 1 1 c 0,1.52 -0.141,3.082 -0.434,4.707 l -0.148,0.821 h -30.91 v -8.207 -1 h 22.789 v 1 l -0.996,0.086 c -0.442,-5.032 -2.039,-8.821 -4.742,-11.532 v 0 c -4.297,-4.281 -9.571,-6.394 -16.051,-6.406 -6.082,0.008 -11.242,2.102 -15.692,6.379 -4.406,4.262 -6.597,9.703 -6.609,16.586 0.012,6.883 2.203,12.324 6.609,16.586 4.45,4.277 9.61,6.371 15.692,6.379 6.761,-0.016 11.867,-2.25 15.66,-6.762 l 0.699,-0.836 6.047,6.051 0.648,0.648 -0.589,0.7 c -2.457,2.929 -5.735,5.254 -9.754,6.98 -4.032,1.731 -8.282,2.598 -12.711,2.598 -8.895,0.008 -16.567,-3.117 -22.785,-9.301 -6.246,-6.172 -9.399,-13.93 -9.387,-23.043 -0.008,-9.109 3.141,-16.871 9.391,-23.047 6.214,-6.18 13.89,-9.301 22.781,-9.293 9.258,-0.008 16.937,3.067 22.765,9.188 l -0.722,0.691 0.707,-0.707 c 5.179,5.176 7.754,12.168 7.742,20.734 h -1" style="fill:#ffffff;fill-opacity:1;fill-rule:nonzero;stroke:none"/>
			<path d="m 708.598,368.66 c -4.364,0 -8.075,1.211 -11.153,3.645 -3.066,2.429 -5.254,5.847 -6.531,10.261 l 7.039,2.938 c 1.789,-6.316 5.449,-9.469 10.977,-9.469 3.574,0 6.328,1.156 8.254,3.477 1.921,2.312 2.89,5.461 2.89,9.426 V 430 h 7.715 v -40.895 c 0,-6.539 -1.809,-11.578 -5.41,-15.125 -3.606,-3.55 -8.195,-5.32 -13.781,-5.32" style="fill:#ffffff;fill-opacity:1;fill-rule:nonzero;stroke:none"/>
			<path d="m 708.598,368.66 v 1 c -4.184,0.008 -7.637,1.145 -10.532,3.43 v 0 c -2.882,2.289 -4.957,5.5 -6.191,9.758 l -0.961,-0.282 0.383,-0.921 7.043,2.933 -0.387,0.926 -0.961,-0.274 c 1.785,-6.57 5.981,-10.253 11.938,-10.195 3.781,-0.015 6.902,1.266 9.023,3.836 2.11,2.539 3.121,5.945 3.121,10.067 V 429 h 5.715 v -39.895 c -0.008,-6.363 -1.738,-11.085 -5.113,-14.414 -3.422,-3.355 -7.699,-5.019 -13.078,-5.031 v -1 -1 c 5.793,-0.008 10.695,1.867 14.48,5.606 3.836,3.773 5.719,9.129 5.711,15.839 V 431 h -8.715 -1 v -42.062 c -0.004,-3.813 -0.922,-6.696 -2.66,-8.786 -1.73,-2.066 -4.113,-3.101 -7.484,-3.117 -5.098,0.059 -8.227,2.684 -10.012,8.738 l -0.309,1.086 -8.082,-3.367 -0.824,-0.344 0.25,-0.859 c 1.32,-4.57 3.625,-8.195 6.871,-10.769 l 0.024,-0.016 -0.024,0.016 c 3.258,-2.579 7.227,-3.864 11.774,-3.86 v 1" style="fill:#ffffff;fill-opacity:1;fill-rule:nonzero;stroke:none"/>
			<path d="m 775.551,422.629 h -27.324 v -19.024 h 24.64 v -7.21 h -24.64 v -19.024 h 27.324 V 370 h -35.028 v 60 h 35.028 v -7.371" style="fill:#ffffff;fill-opacity:1;fill-rule:nonzero;stroke:none"/>
			<path d="m 775.551,422.629 v 1 h -28.324 v -21.024 h 24.64 v -5.207 l -24.64,-0.003 v -21.024 h 27.324 V 371 h -33.028 v 58 h 33.028 v -6.371 h 1 v 1 -1 h 1 v 7.371 1 h -37.028 v -62 h 37.028 v 8.371 1 h -27.324 v 17.024 h 24.64 v 8.21 1 h -24.64 v 17.024 h 27.324 v 1 h -1" style="fill:#ffffff;fill-opacity:1;fill-rule:nonzero;stroke:none"/>
			<path d="m 787.617,370 v 60 h 9.387 l 29.156,-46.676 h 0.332 l -0.332,11.563 V 430 h 7.719 v -60 h -8.051 l -30.508,48.938 h -0.332 l 0.332,-11.567 V 370 h -7.703" style="fill:#ffffff;fill-opacity:1;fill-rule:nonzero;stroke:none"/>
			<path d="m 787.617,370 h 1 v 59 h 7.832 l 29.16,-46.676 h 0.883 1.031 l -0.363,12.578 V 429 h 5.719 v -58 h -6.492 l -30.508,48.938 h -0.891 -1.027 l 0.359,-12.579 V 371 h -6.703 v -1 h 1 -1 v -1 h 7.703 1 v 38.387 l -0.332,11.578 -1,-0.027 v -1 h 0.332 v 1 l -0.847,-0.532 30.8,-49.406 h 8.606 1 v 62 h -8.719 -1 v -36.125 l 0.336,-11.578 0.996,0.027 v 1 h -0.332 v -1 l 0.852,0.531 L 797.555,431 h -9.938 -1 v -62 h 1 v 1" style="fill:#ffffff;fill-opacity:1;fill-rule:nonzero;stroke:none"/>
			<path d="m 904.504,397.566 c 0,-8.378 -2.484,-15.05 -7.453,-20.027 -5.645,-5.918 -12.996,-8.879 -22.039,-8.879 -8.664,0 -16.028,3 -22.082,9.008 -6.067,6.004 -9.09,13.449 -9.09,22.332 0,8.887 3.023,16.328 9.09,22.336 6.054,6.004 13.418,9.008 22.082,9.008 4.297,0 8.406,-0.84 12.312,-2.516 3.906,-1.68 7.039,-3.91 9.387,-6.703 l -5.273,-5.277 c -3.977,4.746 -9.446,7.117 -16.426,7.117 -6.321,0 -11.782,-2.219 -16.391,-6.66 -4.605,-4.446 -6.91,-10.211 -6.91,-17.305 0,-7.094 2.305,-12.859 6.91,-17.305 4.609,-4.441 10.07,-6.66 16.391,-6.66 6.699,0 12.285,2.231 16.758,6.699 2.898,2.911 4.578,6.957 5.027,12.153 h -21.785 v 7.207 h 29.07 c 0.281,-1.567 0.422,-3.071 0.422,-4.528" style="fill:#ffffff;fill-opacity:1;fill-rule:nonzero;stroke:none"/>
			<path d="m 904.504,397.566 h -1 c -0.012,-8.187 -2.399,-14.546 -7.16,-19.32 l -0.008,-0.008 -0.008,-0.008 c -5.465,-5.714 -12.488,-8.558 -21.316,-8.57 -8.434,0.012 -15.489,2.887 -21.379,8.715 -5.879,5.84 -8.785,12.969 -8.793,21.625 0.008,8.66 2.914,15.785 8.793,21.621 5.89,5.832 12.945,8.711 21.379,8.723 4.164,0 8.133,-0.813 11.918,-2.434 3.789,-1.633 6.785,-3.773 9.011,-6.43 l 0.77,0.645 -0.707,0.707 -5.277,-5.281 0.711,-0.703 0.765,0.64 c -4.156,4.981 -9.992,7.492 -17.191,7.477 -6.555,0.008 -12.317,-2.332 -17.082,-6.942 -4.813,-4.625 -7.231,-10.714 -7.219,-18.023 -0.012,-7.309 2.406,-13.398 7.219,-18.023 4.765,-4.61 10.527,-6.95 17.082,-6.942 6.918,-0.012 12.816,2.336 17.461,6.992 h 0.004 c 3.097,3.11 4.859,7.418 5.316,12.774 l 0.094,1.086 h -21.875 v 5.207 h 28.07 v 1 l -0.984,-0.176 c 0.273,-1.516 0.406,-2.957 0.406,-4.352 h 1 1 c 0,1.52 -0.145,3.082 -0.438,4.707 l -0.148,0.821 h -30.906 v -8.207 -1 h 22.785 v 1 l -0.996,0.086 c -0.442,-5.032 -2.039,-8.821 -4.742,-11.532 h 0.004 c -4.301,-4.281 -9.575,-6.394 -16.051,-6.406 -6.086,0.008 -11.242,2.102 -15.696,6.379 -4.406,4.262 -6.597,9.703 -6.605,16.586 0.008,6.883 2.199,12.324 6.605,16.586 4.454,4.277 9.61,6.371 15.696,6.379 6.761,-0.016 11.863,-2.25 15.656,-6.762 l 0.703,-0.836 6.047,6.051 0.645,0.648 -0.586,0.7 c -2.461,2.929 -5.735,5.254 -9.758,6.98 -4.028,1.731 -8.281,2.598 -12.707,2.598 -8.895,0.008 -16.567,-3.117 -22.785,-9.301 -6.25,-6.172 -9.399,-13.93 -9.387,-23.043 -0.012,-9.109 3.137,-16.871 9.387,-23.047 6.218,-6.18 13.89,-9.301 22.785,-9.293 9.254,-0.008 16.937,3.067 22.761,9.188 l -0.722,0.691 0.707,-0.707 c 5.18,5.176 7.754,12.168 7.746,20.734 h -1" style="fill:#ffffff;fill-opacity:1;fill-rule:nonzero;stroke:none"/>
			<path d="M 950.598,422.629 H 923.27 v -19.024 h 24.64 v -7.21 h -24.64 v -19.024 h 27.328 V 370 h -35.032 v 60 h 35.032 v -7.371" style="fill:#ffffff;fill-opacity:1;fill-rule:nonzero;stroke:none"/>
			<path d="m 950.598,422.629 v 1 H 922.27 v -21.024 h 24.64 v -5.207 l -24.64,-0.003 v -21.024 h 27.328 V 371 h -33.032 v 58 h 33.032 v -6.371 h 1 v 1 -1 h 1 v 7.371 1 h -37.032 v -62 h 37.032 v 8.371 1 H 924.27 v 17.024 h 24.64 v 8.21 1 h -24.64 v 17.024 h 27.328 v 1 h -1" style="fill:#ffffff;fill-opacity:1;fill-rule:nonzero;stroke:none"/>
			<path d="m 962.668,370 v 60 h 7.703 v -52.629 h 25.977 V 370 h -33.68" style="fill:#ffffff;fill-opacity:1;fill-rule:nonzero;stroke:none"/>
			<path d="m 962.668,370 h 1 v 59 h 5.703 v -52.629 h 25.977 V 371 h -32.68 v -1 h 1 -1 v -1 h 34.68 v 8.371 1 H 971.371 V 431 h -8.703 -1 v -62 h 1 v 1" style="fill:#ffffff;fill-opacity:1;fill-rule:nonzero;stroke:none"/>
			<path d="m 1006.06,370 v 60 h 7.71 v -60 h -7.71" style="fill:#ffffff;fill-opacity:1;fill-rule:nonzero;stroke:none"/>
			<path d="m 1006.06,370 h 1 v 59 h 5.71 v -58 h -6.71 v -1 h 1 -1 v -1 h 7.71 1 v 62 h -8.71 -1 v -62 h 1 v 1" style="fill:#ffffff;fill-opacity:1;fill-rule:nonzero;stroke:none"/>
			<path d="m 1084.41,397.566 c 0,-8.378 -2.48,-15.05 -7.45,-20.027 -5.64,-5.918 -13,-8.879 -22.04,-8.879 -8.66,0 -16.02,3 -22.08,9.008 -6.06,6.004 -9.09,13.449 -9.09,22.332 0,8.887 3.03,16.328 9.09,22.336 6.06,6.004 13.42,9.008 22.08,9.008 4.3,0 8.41,-0.84 12.32,-2.516 3.9,-1.68 7.04,-3.91 9.38,-6.703 l -5.27,-5.277 c -3.98,4.746 -9.45,7.117 -16.43,7.117 -6.32,0 -11.78,-2.219 -16.38,-6.66 -4.61,-4.446 -6.92,-10.211 -6.92,-17.305 0,-7.094 2.31,-12.859 6.92,-17.305 4.6,-4.441 10.06,-6.66 16.38,-6.66 6.7,0 12.29,2.231 16.76,6.699 2.9,2.911 4.58,6.957 5.03,12.153 h -21.79 v 7.207 h 29.07 c 0.29,-1.567 0.42,-3.071 0.42,-4.528" style="fill:#ffffff;fill-opacity:1;fill-rule:nonzero;stroke:none"/>
			<path d="m 1084.41,397.566 h -1 c 0,-8.187 -2.39,-14.546 -7.15,-19.32 l -0.01,-0.008 -0.01,-0.008 c -5.46,-5.714 -12.49,-8.558 -21.32,-8.57 -8.43,0.012 -15.48,2.887 -21.37,8.715 -5.88,5.84 -8.79,12.969 -8.8,21.625 0.01,8.66 2.92,15.785 8.8,21.621 5.89,5.832 12.94,8.711 21.37,8.723 4.17,0 8.14,-0.813 11.92,-2.434 3.79,-1.633 6.79,-3.773 9.02,-6.43 l 0.76,0.645 -0.71,0.707 -5.27,-5.281 0.71,-0.703 0.76,0.64 c -4.15,4.981 -9.99,7.492 -17.19,7.477 -6.55,0.008 -12.31,-2.332 -17.08,-6.942 -4.81,-4.625 -7.23,-10.714 -7.22,-18.023 -0.01,-7.309 2.41,-13.398 7.22,-18.023 4.77,-4.61 10.53,-6.95 17.08,-6.942 6.92,-0.012 12.82,2.336 17.47,6.992 v 0 c 3.1,3.11 4.86,7.418 5.32,12.774 l 0.09,1.086 h -21.88 v 5.207 h 28.07 v 1 l -0.98,-0.176 c 0.27,-1.516 0.4,-2.957 0.4,-4.352 h 1 1 c 0,1.52 -0.14,3.082 -0.43,4.707 l -0.15,0.821 h -30.91 v -8.207 -1 h 22.79 v 1 l -1,0.086 c -0.44,-5.032 -2.04,-8.821 -4.74,-11.532 v 0 c -4.3,-4.281 -9.57,-6.394 -16.05,-6.406 -6.08,0.008 -11.24,2.102 -15.69,6.379 -4.41,4.262 -6.6,9.703 -6.61,16.586 0.01,6.883 2.2,12.324 6.61,16.586 4.45,4.277 9.61,6.371 15.69,6.379 6.76,-0.016 11.87,-2.25 15.66,-6.762 l 0.7,-0.836 6.05,6.051 0.65,0.648 -0.59,0.7 c -2.46,2.929 -5.74,5.254 -9.76,6.98 -4.03,1.731 -8.28,2.598 -12.71,2.598 -8.89,0.008 -16.56,-3.117 -22.78,-9.301 -6.25,-6.172 -9.4,-13.93 -9.39,-23.043 -0.01,-9.109 3.14,-16.871 9.39,-23.047 6.22,-6.18 13.89,-9.301 22.78,-9.293 9.26,-0.008 16.94,3.067 22.77,9.188 l -0.73,0.691 0.71,-0.707 c 5.18,5.176 7.75,12.168 7.74,20.734 h -1" style="fill:#ffffff;fill-opacity:1;fill-rule:nonzero;stroke:none"/>
			<path d="m 1123.29,401.68 h 12.91 c 3.24,0 5.84,1.086 7.79,3.261 1.96,2.184 2.93,4.579 2.93,7.207 0,2.625 -0.97,5.032 -2.93,7.207 -1.95,2.184 -4.55,3.274 -7.79,3.274 h -12.91 z m 0,-31.68 h -7.7 v 60 h 20.45 c 5.07,0 9.48,-1.687 13.19,-5.066 3.72,-3.379 5.57,-7.645 5.57,-12.786 0,-5.136 -1.85,-9.394 -5.57,-12.773 -3.71,-3.383 -8.12,-5.074 -13.19,-5.074 h -12.75 V 370" style="fill:#ffffff;fill-opacity:1;fill-rule:nonzero;stroke:none"/>
			<path d="m 1123.29,401.68 v -1 h 12.91 c 3.46,-0.012 6.4,1.199 8.54,3.593 v 0 c 2.09,2.325 3.19,4.997 3.18,7.875 0.01,2.879 -1.09,5.555 -3.18,7.875 v 0 c -2.13,2.403 -5.08,3.618 -8.54,3.606 h -12.91 -1 V 400.68 h 1 v 1 h 1 v 19.949 h 11.91 c 3.02,-0.016 5.28,-0.977 7.05,-2.941 v 0 c 1.82,-2.036 2.67,-4.165 2.67,-6.54 0,-2.375 -0.85,-4.496 -2.67,-6.539 v 0 c -1.77,-1.961 -4.02,-2.918 -7.05,-2.929 h -12.91 v -1 h 1 z m 0,-31.68 v 1 h -6.7 v 58 h 19.45 c 4.85,-0.008 8.97,-1.59 12.52,-4.809 v 0 c 3.52,-3.214 5.23,-7.14 5.24,-12.043 -0.01,-4.894 -1.72,-8.816 -5.24,-12.035 h -0.01 c -3.54,-3.222 -7.66,-4.804 -12.51,-4.812 h -12.75 -1 V 370 h 1 v 1 -1 h 1 v 23.301 h 11.75 c 5.3,-0.008 9.99,1.793 13.86,5.336 v 0 c 3.92,3.539 5.92,8.133 5.9,13.511 0.02,5.383 -1.98,9.981 -5.9,13.524 v 0 c -3.87,3.539 -8.56,5.336 -13.86,5.328 h -21.45 v -62 h 8.7 1 v 1 h -1" style="fill:#ffffff;fill-opacity:1;fill-rule:nonzero;stroke:none"/>
			<path d="m 1180.62,430 2.34,1.008 1,2.344 -1,2.347 -2.34,1.004 -2.35,-1.004 -1,-2.347 0.87,-2.305 2.14,-1.047 z m -9.98,-36.531 h 19.95 l -9.81,27.062 h -0.33 z M 1153.63,370 1175,426.648 c -2.07,1.731 -3.1,3.965 -3.1,6.704 0,2.461 0.83,4.531 2.51,6.199 1.68,1.679 3.74,2.519 6.21,2.519 2.4,0 4.45,-0.855 6.16,-2.558 1.7,-1.703 2.56,-3.758 2.56,-6.16 0,-2.676 -1.04,-4.914 -3.11,-6.704 L 1207.6,370 h -8.55 l -5.78,16.262 h -25.22 L 1162.18,370 h -8.55" style="fill:#ffffff;fill-opacity:1;fill-rule:nonzero;stroke:none"/>
			<path d="m 1180.62,430 0.39,-0.918 2.34,1.004 0.37,0.156 1.16,2.711 0.17,0.395 -1.17,2.746 -0.16,0.367 -2.71,1.16 -0.39,0.172 -2.74,-1.176 -0.37,-0.156 -1.16,-2.719 -0.16,-0.371 1.02,-2.683 0.14,-0.368 2.49,-1.218 0.21,-0.102 h 0.57 0.2 l 0.19,0.082 -0.39,0.918 v 1 h -0.11 l -1.57,0.77 -0.6,1.558 0.69,1.61 1.59,0.679 1.58,-0.679 0.68,-1.586 -0.68,-1.586 -1.98,-0.848 0.4,-0.918 v 1 z m -9.98,-36.531 v -1 h 21.37 l -10.53,29.062 h -1.03 -0.7 l -10.53,-29.062 h 1.42 v 1 l 0.94,-0.344 9.81,27.066 -0.94,0.34 v -1 h 0.33 v 1 l -0.94,-0.34 9.32,-25.722 h -18.52 v -1 l 0.94,-0.344 z M 1153.63,370 l 0.94,-0.352 21.62,57.317 -0.55,0.453 c -1.86,1.57 -2.72,3.445 -2.74,5.934 0.01,2.234 0.72,3.992 2.22,5.492 v 0 c 1.51,1.5 3.26,2.215 5.5,2.226 2.16,-0.011 3.9,-0.734 5.45,-2.265 v 0 c 1.53,-1.543 2.26,-3.293 2.27,-5.453 -0.02,-2.418 -0.89,-4.309 -2.76,-5.946 l -0.53,-0.457 21.1,-55.949 h -6.39 l -5.78,16.262 h -26.64 L 1161.48,371 h -7.85 v -1 l 0.94,-0.352 -0.94,0.352 v -1 h 8.55 0.7 l 5.87,16.262 h 23.82 L 1198.35,369 h 9.25 1.44 l -21.87,58.004 -0.94,-0.356 0.65,-0.753 c 2.27,1.937 3.47,4.519 3.46,7.457 0.01,2.64 -0.98,5.003 -2.85,6.867 h -0.01 c -1.86,1.879 -4.22,2.859 -6.86,2.851 -2.69,0.012 -5.07,-0.953 -6.91,-2.812 v 0.004 c -1.87,-1.844 -2.82,-4.227 -2.81,-6.91 -0.01,-2.989 1.18,-5.582 3.46,-7.469 l 0.64,0.765 -0.94,0.356 L 1152.19,369 h 1.44 v 1" style="fill:#ffffff;fill-opacity:1;fill-rule:nonzero;stroke:none"/>
		</g>
	</g>
</svg>
