<?xml version="1.0" standalone="yes"?>
<svg xmlns="http://www.w3.org/2000/svg" width="120" height="120" viewBox="0 0 100 100">
	<rect fill="#ffffff" x="0" y="0" width="100" height="100" />
	<path fill="#000000" d="M55 63C61.967 60.297 69.477 57.4403 74.6713 51.8264C80.7755 45.2291 82.5798 36.019 86.0154 28C88.1178 23.093 94.8531 17.6156 91.2531 12.0934C86.1015 4.19109 70.0579 -1.04855 61 0.210648C54.5418 1.10845 48.1641 4.60403 42 6.66666C35.7008 8.7745 28.1187 10.5379 23.1736 15.2137C18.6565 19.4848 14.1842 26.1649 11.9938 32C7.86376 43.0022 17.3263 51.7922 18.7716 62C19.3034 65.7561 16.6515 69.3003 16.1852 73C14.839 83.6814 18.4955 94.0995 29 98.6327C51.0786 108.161 69.2872 80.7148 55 63z"/>
	<path fill="#ffffff" d="M23 57C25.1647 55.4093 27.4157 53.9038 27.8032 50.9954C28.2722 47.4758 25.1194 43.6998 26.4028 40.26C27.2397 38.0168 30.0011 36.796 31.7006 35.2963C33.4932 33.7145 35.0267 31.1585 37.3002 30.233C39.4427 29.3608 41.8463 30.5068 44 30.7917C48.3948 31.373 52.6373 30.9613 57 32C53.8353 37.476 48.9619 44.4125 43.8264 48.186C38.5485 52.0641 27.8448 54.9839 27.4267 62.9961C27.2137 67.0776 31.2174 69.8382 35 69.3588C40.5477 68.6557 44.6732 63.8158 49 60.7855C56.3836 55.6143 65.5396 54.0607 71.6705 46.9599C79.289 38.1362 79.9038 25.3338 87 16C81.7695 9.57942 71.5028 4.55151 63 5.22454C57.629 5.64967 52.0845 8.63195 47 10.3333C33.6175 14.8114 21.0138 19.9081 16.6528 35C14.5436 42.2989 20.3068 50.5226 23 57M31 42L33 48C39.8938 46.0095 44.0978 41.8953 48 36C40.1482 35.844 37.308 37.2168 31 42M50 66C45.1281 69.8636 38.7883 75.7783 32 74.5656C28.4233 73.9266 25.3172 71.3745 22 70C21.14 73.6122 20.6929 77.2821 21.1883 81C21.523 83.5127 22.4006 85.8739 23.8542 87.9599C37.8806 108.089 67.9556 81.4459 50 66z"/>
</svg>
