<?xml version="1.0" encoding="UTF-8" standalone="no"?>
<svg xmlns="http://www.w3.org/2000/svg" version="1.1" width="680.32px" height="680.32px" viewBox="0 0 680.32 680.32">
	<path 
		transform="matrix(1,0,0,-1,369.6748,119.73889)" 
		d="M 0 0 C -32.823 26.259 -81.712 39.396 -150.298 39.396 C -218.147 39.396 -264.048 33.709 -264.048 33.709 C -284.147 31.219 -300.596 12.612 -300.596 -7.645 L -300.596 -419.179 C -300.596 -439.437 -287.859 -456.011 -272.293 -456.011 C -256.734 -456.011 -237.207 -440.888 -228.906 -422.411 L -129.207 -200.431 C -120.906 -181.951 -130.686 -166.84 -150.943 -166.84 L -204.742 -166.84 C -224.994 -166.84 -241.569 -150.267 -241.569 -130.01 L -241.569 -117.868 C -241.569 -97.615 -224.994 -81.045 -204.742 -81.045 L -52.747 -81.045 C -32.489 -81.045 -15.919 -95.382 -15.919 -112.906 C -15.919 -130.428 -22.382 -160.028 -30.292 -178.676 L -57.456 -242.733 C -65.361 -261.384 -56.471 -270.397 -37.71 -262.784 C -37.71 -262.784 -18.706 -255.062 7.29 -230.552 C 36.486 -202.833 52.527 -161.972 52.527 -113.828 C 52.527 -65.664 31.369 -24.812 0 0 " 
		fill="#af1e23"
	/>


	<!-- PeSju -->
	<g fill="#404041">
		<path 
			d="M 0 .035 L 0 .697 C 0 .70633336 .0036666692 .71433338 .011000007 .721 C .019000004 .7276667 .029000005 .731 .04100001 .731 L .23600002 .731 C .3026667 .731 .35566674 .71333339 .39500005 .67800006 C .43500004 .64266666 .45500005 .587 .45500005 .51100006 L .45500005 .503 C .45500005 .42700006 .43433336 .37100003 .393 .335 C .35233335 .29966668 .298 .282 .23 .282 L .106000009 .282 L .106000009 .035 C .106000009 .024333334 .10066667 .015666668 .09 .009000001 C .080000009 .0030000003 .06766667 0 .053000004 0 C .039000006 0 .026666671 .0030000003 .016000003 .009000001 C .005333334 .015666668 0 .024333334 0 .035 M .106000009 .36600004 L .23 .36600004 C .268 .36600004 .29733334 .3766667 .31800003 .39800004 C .33866669 .42000006 .34900008 .45266668 .34900005 .49600003 L .34900005 .508 C .34900008 .55133339 .33866669 .5836667 .31800003 .605 C .29733334 .62633338 .268 .637 .23 .637 L .106000009 .637 L .106000009 .36600004 Z "
			transform="matrix(173.5286,0,0,-173.5286,246.41869,548.9147)" 
		/>
		<path 
			d="M 0 .19900002 L 0 .294 C 0 .34666667 .020333335 .392 .061000006 .43 C .10166667 .46866668 .15066667 .488 .208 .488 C .26266668 .488 .30933336 .47033335 .34800003 .435 C .38733337 .40033333 .40700004 .35633336 .40700004 .303 C .40700004 .283 .4046667 .26666669 .4 .254 C .39533333 .24200003 .388 .23333335 .37800003 .22800002 C .36800004 .22333336 .35866667 .22033334 .35000003 .21900001 C .34133337 .21766667 .33 .21700001 .316 .21700001 L .105000007 .21700001 L .105000007 .194 C .105 .16066668 .117000009 .134 .141 .11400001 C .165 .09466668 .19633335 .08500001 .23500002 .08500001 C .26233337 .08500001 .28800003 .09133334 .312 .104 C .33666668 .116666678 .3516667 .123 .35700003 .123 C .36833335 .123 .37800003 .11766667 .386 .10700001 C .39400003 .09633335 .39800004 .086 .39800004 .076000008 C .39800004 .059333337 .38200007 .042333336 .35000003 .025000003 C .31800003 .008333334 .2786667 0 .23200003 0 C .16400002 0 .10833334 .018333335 .065000008 .055000005 C .021666669 .09166667 0 .13966668 0 .19900002 M .105000007 .282 L .27100004 .282 C .28566668 .282 .29533337 .284 .3 .288 C .30533336 .292 .30800004 .29999999 .30800004 .312 C .30800004 .33866669 .29833339 .36133335 .279 .38 C .25966669 .39866666 .23566668 .408 .20700002 .408 C .17900002 .408 .15500002 .39900003 .135 .381 C .11500001 .36366666 .105 .3413333 .105000007 .314 L .105000007 .282 Z "
			transform="matrix(173.5286,0,0,-173.5286,332.6624,550.3029)" 
		/>

		<path 
			d="M 0 .11800001 C 0 .13066668 .004666667 .14333333 .014 .156 C .023333336 .16866668 .034000007 .17500001 .046000005 .17500001 C .05333334 .17500001 .062000008 .17066668 .072000008 .16200002 C .08266667 .154 .093 .145 .103 .135 C .113 .12566668 .128 .116666678 .148 .108 C .16866668 .1 .19166668 .09600001 .21700001 .09600001 C .255 .09600001 .2853333 .10500001 .308 .123 C .3313333 .141 .34300003 .16733335 .343 .202 C .34300003 .23400001 .33166669 .26066668 .30900003 .282 C .287 .30333335 .26 .32033334 .228 .333 C .19666668 .34566666 .165 .35933338 .133 .374 C .10100001 .38866667 .07366667 .41066668 .051000008 .44 C .029000005 .46933333 .018000002 .50600007 .018000002 .5500001 C .018000002 .5853334 .024666667 .616 .038000004 .642 C .052000006 .66800007 .07066667 .688 .094000007 .702 C .117333348 .7160001 .14166667 .7260001 .16700001 .73200008 C .19300002 .7386667 .22033336 .74200007 .24900003 .74200007 C .267 .74200007 .28566668 .7406667 .305 .73800006 C .32500003 .73600009 .3446667 .7323334 .364 .72700008 C .38333334 .72166678 .39933334 .71400007 .412 .70400008 C .42466665 .69400009 .431 .6826668 .431 .6700001 C .431 .6573334 .42700003 .6446667 .419 .632 C .411 .6193333 .40033333 .61300006 .387 .61300006 C .38033334 .61300006 .37133337 .616 .36 .62200006 C .34866668 .6286667 .33333335 .63500007 .314 .64100006 C .29533337 .6476667 .27366669 .651 .24900003 .651 C .21100003 .651 .18066669 .6433334 .158 .628 C .13533335 .6133334 .12400001 .5906667 .12400001 .56000009 C .12400001 .54 .13000001 .5226667 .142 .508 C .154 .49400006 .16933334 .48233334 .18800001 .47300003 C .20733334 .46366669 .22866667 .45433335 .252 .445 C .27533333 .43633334 .29833333 .426 .321 .414 C .34433333 .40199999 .36533333 .388 .384 .372 C .40333335 .35666669 .419 .33533336 .431 .308 C .443 .28066669 .449 .249 .449 .21300002 C .449 .14366667 .428 .090666677 .386 .054000006 C .3446667 .018000002 .28966669 0 .221 0 C .15966667 0 .10733334 .012666668 .064 .038000004 C .021333335 .064 0 .090666677 0 .11800001 Z "
			transform="matrix(173.5286,0,0,-173.5286,413.3532,550.3029)"
		/>
		<path 
			d="M 0 .044 C 0 .05733333 .0040000008 .068333338 .012000002 .07700001 C .020000002 .08566668 .029666668 .09 .041 .09 C .062333336 .09 .07633334 .09833334 .083000008 .115 C .08966667 .131 .09300002 .15566667 .09300001 .18900001 L .09300001 .665 C .09300002 .675 .09766668 .683 .10700001 .689 C .117000009 .69566676 .12966667 .69900009 .14500001 .69900009 C .16033335 .69900009 .17300003 .69566676 .18300002 .689 C .19300002 .683 .19800002 .675 .19800002 .665 L .19800002 .18900001 C .19800002 .131 .186 .085 .162 .051 C .13800001 .016999999 .102333348 0 .055000005 0 C .018333335 0 0 .014666666 0 .044 M .08400001 .873 C .084000017 .8883333 .09 .90133336 .102000009 .91200008 C .114 .9226667 .12833335 .92800006 .14500001 .92800006 C .16166668 .92800006 .176 .9226667 .18800001 .91200008 C .2 .90133336 .20600002 .8883333 .20600002 .873 C .20600002 .8583334 .2 .8453334 .18800001 .83400008 C .176 .82333347 .16166668 .8180001 .14500001 .8180001 C .12833335 .8180001 .114 .82333347 .102000009 .83400008 C .09 .8453334 .084000017 .8583334 .08400001 .873 Z "
			transform="matrix(173.5286,0,0,-173.5286,488.4911,587.9586)" 
		/>
		<path 
			d="M 0 .19700001 L 0 .447 C 0 .4563333 .005333333 .46433334 .015999999 .47100003 C .026666666 .47833336 .039 .48200003 .053 .48200003 C .067 .48200003 .079 .47833336 .089 .47100003 C .09966668 .46433334 .105 .4563333 .105000007 .447 L .105000007 .19700001 C .105 .17033334 .11500001 .14633334 .135 .125 C .15566667 .10366666 .17966669 .093 .20700002 .093 C .23500002 .093 .25900004 .10333333 .279 .124000009 C .29900003 .14533334 .30900003 .16966667 .30900003 .19700001 L .30900003 .448 C .30900003 .45733334 .314 .46533335 .32400004 .472 C .3346667 .4786667 .34733335 .48200003 .36200003 .48200003 C .3766667 .48200003 .38866673 .4786667 .39800004 .472 C .40800003 .46533335 .41300003 .45733334 .41300003 .448 L .41300003 .19700001 C .41300003 .14433335 .3926667 .09833334 .35200004 .059000005 C .31133334 .019666668 .263 0 .20700002 0 C .15100001 0 .10233334 .019666668 .061 .059000005 C .020333333 .09833334 0 .14433335 0 .19700001 Z "
			transform="matrix(173.5286,0,0,-173.5286,538.1203,550.3029)" 
		/>
	</g>
</svg>
