<?xml version="1.0" encoding="UTF-8"?>
<svg width="230" height="230" version="1.0" viewBox="-108 0 869 869" xmlns="http://www.w3.org/2000/svg">
	<rect x="-108" y="0" width="869" height="869" fill="white" />
	<path d="m194 1c-5 2-68 38-72 42-8 8-10 21-5 31 5 10 115 200 118 203 6 7 19 12 28 9 5-1 66-36 72-41 7-6 10-18 8-27-0.6-2-27-50-60-106-47-82-59-102-63-106-7-6-16-9-25-6z"/>
	<path d="m82 88c-21 13-32 21-44 32-33 32-42 64-37 130 8 94 55 220 125 336 66 109 145 200 218 249 38 26 61 34 91 34 20 0 37-4 61-14 11-5 36-18 37-20 0.3-0.6-114-199-120-209-0.6-1-2-0.8-5 0.7-7 4-18 7-27 8-33 4-71-15-107-52-44-46-80-114-90-175-8-45-2-81 18-104 3-4 14-13 17-14 0.8-0.3-22-40-59-105-33-57-61-105-61-105-0.4-0.5-8 3-16 8z"/>
	<path d="m510 542c-6 0.7-5 0.3-41 21-16 9-31 19-33 20-7 7-10 18-7 27 2 5 116 203 120 208 7 9 21 12 33 6 9-4 61-35 66-38 6-4 9-12 9-20 0-4-0.5-8-1-10-3-8-118-204-121-208-6-6-14-9-23-8z"/>
</svg>
